<mxfile host="app.diagrams.net" modified="2024-03-07T09:03:31.044Z" agent="Mozilla/5.0 (Windows NT 10.0; Win64; x64) AppleWebKit/537.36 (KHTML, like Gecko) Chrome/121.0.0.0 Safari/537.36 Edg/121.0.0.0" etag="OMxMZW_-O2p2sask2tJV" version="24.0.2" type="github" pages="4">
  <diagram name="第 1 页" id="B17giE9bdFfUlBq3_h-e">
    <mxGraphModel dx="520" dy="533" grid="1" gridSize="10" guides="1" tooltips="1" connect="1" arrows="1" fold="1" page="1" pageScale="1" pageWidth="850" pageHeight="1100" math="1" shadow="0">
      <root>
        <mxCell id="0" />
        <mxCell id="1" parent="0" />
        <mxCell id="TzC6r4i3UWL8ITXRyoH_-3" style="edgeStyle=orthogonalEdgeStyle;rounded=0;orthogonalLoop=1;jettySize=auto;html=1;exitX=1;exitY=0.5;exitDx=0;exitDy=0;entryX=0;entryY=0.5;entryDx=0;entryDy=0;" edge="1" parent="1" source="TzC6r4i3UWL8ITXRyoH_-1" target="TzC6r4i3UWL8ITXRyoH_-2">
          <mxGeometry relative="1" as="geometry" />
        </mxCell>
        <mxCell id="TzC6r4i3UWL8ITXRyoH_-1" value="&lt;font style=&quot;font-size: 15px;&quot;&gt;$$x&#39;(n)$$&lt;/font&gt;" style="rounded=1;whiteSpace=wrap;html=1;" vertex="1" parent="1">
          <mxGeometry x="20" y="155" width="60" height="40" as="geometry" />
        </mxCell>
        <mxCell id="TzC6r4i3UWL8ITXRyoH_-8" style="edgeStyle=orthogonalEdgeStyle;rounded=0;orthogonalLoop=1;jettySize=auto;html=1;exitX=1;exitY=0.5;exitDx=0;exitDy=0;entryX=0;entryY=0.5;entryDx=0;entryDy=0;" edge="1" parent="1" source="TzC6r4i3UWL8ITXRyoH_-2" target="TzC6r4i3UWL8ITXRyoH_-7">
          <mxGeometry relative="1" as="geometry" />
        </mxCell>
        <mxCell id="TzC6r4i3UWL8ITXRyoH_-2" value="" style="rounded=0;whiteSpace=wrap;html=1;" vertex="1" parent="1">
          <mxGeometry x="120" y="20" width="330" height="310" as="geometry" />
        </mxCell>
        <mxCell id="TzC6r4i3UWL8ITXRyoH_-4" value="" style="shape=cube;whiteSpace=wrap;html=1;boundedLbl=1;backgroundOutline=1;darkOpacity=0.05;darkOpacity2=0.1;" vertex="1" parent="1">
          <mxGeometry x="140" y="160" width="140" height="30" as="geometry" />
        </mxCell>
        <mxCell id="TzC6r4i3UWL8ITXRyoH_-5" value="" style="shape=cube;whiteSpace=wrap;html=1;boundedLbl=1;backgroundOutline=1;darkOpacity=0.05;darkOpacity2=0.1;" vertex="1" parent="1">
          <mxGeometry x="290" y="125" width="50" height="100" as="geometry" />
        </mxCell>
        <mxCell id="TzC6r4i3UWL8ITXRyoH_-6" value="" style="shape=cube;whiteSpace=wrap;html=1;boundedLbl=1;backgroundOutline=1;darkOpacity=0.05;darkOpacity2=0.1;" vertex="1" parent="1">
          <mxGeometry x="360" y="60" width="40" height="230" as="geometry" />
        </mxCell>
        <mxCell id="TzC6r4i3UWL8ITXRyoH_-14" style="edgeStyle=orthogonalEdgeStyle;rounded=0;orthogonalLoop=1;jettySize=auto;html=1;exitX=1;exitY=0.5;exitDx=0;exitDy=0;entryX=0;entryY=0.5;entryDx=0;entryDy=0;" edge="1" parent="1" source="TzC6r4i3UWL8ITXRyoH_-7" target="TzC6r4i3UWL8ITXRyoH_-10">
          <mxGeometry relative="1" as="geometry" />
        </mxCell>
        <mxCell id="TzC6r4i3UWL8ITXRyoH_-7" value="&lt;font style=&quot;font-size: 14px;&quot;&gt;$$x&#39;(n)$$&lt;/font&gt;" style="rounded=1;whiteSpace=wrap;html=1;" vertex="1" parent="1">
          <mxGeometry x="490" y="155" width="60" height="40" as="geometry" />
        </mxCell>
        <mxCell id="TzC6r4i3UWL8ITXRyoH_-15" style="edgeStyle=orthogonalEdgeStyle;rounded=0;orthogonalLoop=1;jettySize=auto;html=1;exitX=1;exitY=0.25;exitDx=0;exitDy=0;" edge="1" parent="1" source="TzC6r4i3UWL8ITXRyoH_-10">
          <mxGeometry relative="1" as="geometry">
            <mxPoint x="1000" y="98" as="targetPoint" />
          </mxGeometry>
        </mxCell>
        <mxCell id="TzC6r4i3UWL8ITXRyoH_-16" style="edgeStyle=orthogonalEdgeStyle;rounded=0;orthogonalLoop=1;jettySize=auto;html=1;exitX=1;exitY=0.75;exitDx=0;exitDy=0;" edge="1" parent="1" source="TzC6r4i3UWL8ITXRyoH_-10">
          <mxGeometry relative="1" as="geometry">
            <mxPoint x="1000" y="253" as="targetPoint" />
          </mxGeometry>
        </mxCell>
        <mxCell id="TzC6r4i3UWL8ITXRyoH_-10" value="" style="rounded=0;whiteSpace=wrap;html=1;" vertex="1" parent="1">
          <mxGeometry x="580" y="20" width="330" height="310" as="geometry" />
        </mxCell>
        <mxCell id="TzC6r4i3UWL8ITXRyoH_-11" value="" style="shape=cube;whiteSpace=wrap;html=1;boundedLbl=1;backgroundOutline=1;darkOpacity=0.05;darkOpacity2=0.1;" vertex="1" parent="1">
          <mxGeometry x="760" y="160" width="140" height="30" as="geometry" />
        </mxCell>
        <mxCell id="TzC6r4i3UWL8ITXRyoH_-12" value="" style="shape=cube;whiteSpace=wrap;html=1;boundedLbl=1;backgroundOutline=1;darkOpacity=0.05;darkOpacity2=0.1;" vertex="1" parent="1">
          <mxGeometry x="700" y="125" width="50" height="100" as="geometry" />
        </mxCell>
        <mxCell id="TzC6r4i3UWL8ITXRyoH_-13" value="" style="shape=cube;whiteSpace=wrap;html=1;boundedLbl=1;backgroundOutline=1;darkOpacity=0.05;darkOpacity2=0.1;rotation=0;" vertex="1" parent="1">
          <mxGeometry x="630" y="60" width="40" height="230" as="geometry" />
        </mxCell>
        <mxCell id="TzC6r4i3UWL8ITXRyoH_-17" value="&lt;font style=&quot;font-size: 15px;&quot;&gt;&quot;Real&quot;&lt;/font&gt;" style="text;html=1;align=center;verticalAlign=middle;whiteSpace=wrap;rounded=0;" vertex="1" parent="1">
          <mxGeometry x="1000" y="80" width="60" height="30" as="geometry" />
        </mxCell>
        <mxCell id="TzC6r4i3UWL8ITXRyoH_-18" value="&lt;font style=&quot;font-size: 15px;&quot;&gt;&quot;Fake&quot;&lt;/font&gt;" style="text;html=1;align=center;verticalAlign=middle;whiteSpace=wrap;rounded=0;" vertex="1" parent="1">
          <mxGeometry x="1000" y="240" width="60" height="30" as="geometry" />
        </mxCell>
        <mxCell id="TzC6r4i3UWL8ITXRyoH_-20" style="edgeStyle=orthogonalEdgeStyle;rounded=0;orthogonalLoop=1;jettySize=auto;html=1;exitX=0.5;exitY=0;exitDx=0;exitDy=0;entryX=0;entryY=0.75;entryDx=0;entryDy=0;" edge="1" parent="1" source="TzC6r4i3UWL8ITXRyoH_-19" target="TzC6r4i3UWL8ITXRyoH_-10">
          <mxGeometry relative="1" as="geometry">
            <mxPoint x="520" y="240" as="targetPoint" />
            <Array as="points">
              <mxPoint x="520" y="253" />
            </Array>
          </mxGeometry>
        </mxCell>
        <mxCell id="TzC6r4i3UWL8ITXRyoH_-19" value="&lt;font style=&quot;font-size: 14px;&quot;&gt;$$x(n)$$&lt;/font&gt;" style="rounded=1;whiteSpace=wrap;html=1;" vertex="1" parent="1">
          <mxGeometry x="490" y="310" width="60" height="40" as="geometry" />
        </mxCell>
        <mxCell id="TzC6r4i3UWL8ITXRyoH_-21" value="&lt;font style=&quot;font-size: 15px;&quot;&gt;Discriminator&lt;/font&gt;" style="text;html=1;align=center;verticalAlign=middle;whiteSpace=wrap;rounded=0;" vertex="1" parent="1">
          <mxGeometry x="820" y="30" width="60" height="30" as="geometry" />
        </mxCell>
        <mxCell id="TzC6r4i3UWL8ITXRyoH_-22" value="&lt;span style=&quot;color: rgb(0, 0, 0); font-family: Helvetica; font-size: 15px; font-style: normal; font-variant-ligatures: normal; font-variant-caps: normal; font-weight: 400; letter-spacing: normal; orphans: 2; text-align: center; text-indent: 0px; text-transform: none; widows: 2; word-spacing: 0px; -webkit-text-stroke-width: 0px; white-space: normal; background-color: rgb(251, 251, 251); text-decoration-thickness: initial; text-decoration-style: initial; text-decoration-color: initial; display: inline !important; float: none;&quot;&gt;Generator&lt;/span&gt;" style="text;whiteSpace=wrap;html=1;" vertex="1" parent="1">
          <mxGeometry x="130" y="30" width="120" height="40" as="geometry" />
        </mxCell>
      </root>
    </mxGraphModel>
  </diagram>
  <diagram id="6rnwTCLJVNTrNpy7qT_9" name="第 2 页">
    <mxGraphModel dx="631" dy="647" grid="1" gridSize="10" guides="1" tooltips="1" connect="1" arrows="1" fold="1" page="1" pageScale="1" pageWidth="850" pageHeight="1100" math="1" shadow="0">
      <root>
        <mxCell id="0" />
        <mxCell id="1" parent="0" />
        <mxCell id="Mdry7S0cgO57v2mx3vp4-1" style="edgeStyle=orthogonalEdgeStyle;rounded=0;orthogonalLoop=1;jettySize=auto;html=1;exitX=1;exitY=0.5;exitDx=0;exitDy=0;entryX=0;entryY=0.5;entryDx=0;entryDy=0;" edge="1" parent="1" source="Mdry7S0cgO57v2mx3vp4-2" target="Mdry7S0cgO57v2mx3vp4-4">
          <mxGeometry relative="1" as="geometry" />
        </mxCell>
        <mxCell id="Mdry7S0cgO57v2mx3vp4-2" value="&lt;font style=&quot;font-size: 15px;&quot;&gt;$$x&#39;(n)$$&lt;/font&gt;" style="rounded=1;whiteSpace=wrap;html=1;" vertex="1" parent="1">
          <mxGeometry x="20" y="155" width="60" height="40" as="geometry" />
        </mxCell>
        <mxCell id="Mdry7S0cgO57v2mx3vp4-3" style="edgeStyle=orthogonalEdgeStyle;rounded=0;orthogonalLoop=1;jettySize=auto;html=1;exitX=1;exitY=0.5;exitDx=0;exitDy=0;entryX=0;entryY=0.5;entryDx=0;entryDy=0;" edge="1" parent="1" source="Mdry7S0cgO57v2mx3vp4-4" target="Mdry7S0cgO57v2mx3vp4-9">
          <mxGeometry relative="1" as="geometry" />
        </mxCell>
        <mxCell id="Mdry7S0cgO57v2mx3vp4-4" value="" style="rounded=0;whiteSpace=wrap;html=1;" vertex="1" parent="1">
          <mxGeometry x="120" y="20" width="330" height="310" as="geometry" />
        </mxCell>
        <mxCell id="Mdry7S0cgO57v2mx3vp4-5" value="" style="shape=cube;whiteSpace=wrap;html=1;boundedLbl=1;backgroundOutline=1;darkOpacity=0.05;darkOpacity2=0.1;" vertex="1" parent="1">
          <mxGeometry x="140" y="160" width="140" height="30" as="geometry" />
        </mxCell>
        <mxCell id="Mdry7S0cgO57v2mx3vp4-6" value="" style="shape=cube;whiteSpace=wrap;html=1;boundedLbl=1;backgroundOutline=1;darkOpacity=0.05;darkOpacity2=0.1;" vertex="1" parent="1">
          <mxGeometry x="290" y="125" width="50" height="100" as="geometry" />
        </mxCell>
        <mxCell id="Mdry7S0cgO57v2mx3vp4-7" value="" style="shape=cube;whiteSpace=wrap;html=1;boundedLbl=1;backgroundOutline=1;darkOpacity=0.05;darkOpacity2=0.1;" vertex="1" parent="1">
          <mxGeometry x="360" y="60" width="40" height="230" as="geometry" />
        </mxCell>
        <mxCell id="Mdry7S0cgO57v2mx3vp4-8" style="edgeStyle=orthogonalEdgeStyle;rounded=0;orthogonalLoop=1;jettySize=auto;html=1;exitX=1;exitY=0.5;exitDx=0;exitDy=0;entryX=0;entryY=0.5;entryDx=0;entryDy=0;" edge="1" parent="1" source="Mdry7S0cgO57v2mx3vp4-9">
          <mxGeometry relative="1" as="geometry">
            <mxPoint x="580" y="175" as="targetPoint" />
          </mxGeometry>
        </mxCell>
        <mxCell id="Mdry7S0cgO57v2mx3vp4-9" value="&lt;font style=&quot;font-size: 14px;&quot;&gt;$$x&#39;(n)$$&lt;/font&gt;" style="rounded=1;whiteSpace=wrap;html=1;" vertex="1" parent="1">
          <mxGeometry x="490" y="155" width="60" height="40" as="geometry" />
        </mxCell>
        <mxCell id="Mdry7S0cgO57v2mx3vp4-21" value="&lt;span style=&quot;color: rgb(0, 0, 0); font-family: Helvetica; font-size: 15px; font-style: normal; font-variant-ligatures: normal; font-variant-caps: normal; font-weight: 400; letter-spacing: normal; orphans: 2; text-align: center; text-indent: 0px; text-transform: none; widows: 2; word-spacing: 0px; -webkit-text-stroke-width: 0px; white-space: normal; background-color: rgb(251, 251, 251); text-decoration-thickness: initial; text-decoration-style: initial; text-decoration-color: initial; display: inline !important; float: none;&quot;&gt;Generator&lt;/span&gt;" style="text;whiteSpace=wrap;html=1;" vertex="1" parent="1">
          <mxGeometry x="130" y="30" width="120" height="40" as="geometry" />
        </mxCell>
        <mxCell id="Mdry7S0cgO57v2mx3vp4-23" style="edgeStyle=orthogonalEdgeStyle;rounded=0;orthogonalLoop=1;jettySize=auto;html=1;" edge="1" parent="1" source="Mdry7S0cgO57v2mx3vp4-22">
          <mxGeometry relative="1" as="geometry">
            <mxPoint x="730" y="175" as="targetPoint" />
          </mxGeometry>
        </mxCell>
        <mxCell id="Mdry7S0cgO57v2mx3vp4-22" value="DOA Estimation Mdel" style="rounded=1;whiteSpace=wrap;html=1;" vertex="1" parent="1">
          <mxGeometry x="580" y="152.5" width="120" height="45" as="geometry" />
        </mxCell>
        <mxCell id="Mdry7S0cgO57v2mx3vp4-24" value="&lt;font style=&quot;font-size: 14px;&quot;&gt;Result&lt;/font&gt;" style="rounded=1;whiteSpace=wrap;html=1;" vertex="1" parent="1">
          <mxGeometry x="730" y="155" width="60" height="40" as="geometry" />
        </mxCell>
      </root>
    </mxGraphModel>
  </diagram>
  <diagram id="WH4DyfLH2JATxZXnVOop" name="第 3 页">
    <mxGraphModel dx="442" dy="453" grid="1" gridSize="10" guides="1" tooltips="1" connect="1" arrows="1" fold="1" page="1" pageScale="1" pageWidth="850" pageHeight="1100" math="1" shadow="0">
      <root>
        <mxCell id="0" />
        <mxCell id="1" parent="0" />
        <mxCell id="ENUr2uliMA9B9ldXwCLC-2" style="edgeStyle=orthogonalEdgeStyle;rounded=0;orthogonalLoop=1;jettySize=auto;html=1;" edge="1" parent="1" source="ENUr2uliMA9B9ldXwCLC-1">
          <mxGeometry relative="1" as="geometry">
            <mxPoint x="120" y="175" as="targetPoint" />
          </mxGeometry>
        </mxCell>
        <mxCell id="ENUr2uliMA9B9ldXwCLC-1" value="&lt;font style=&quot;font-size: 14px;&quot;&gt;$$x&#39;(n)$$&lt;/font&gt;" style="rounded=1;whiteSpace=wrap;html=1;" vertex="1" parent="1">
          <mxGeometry x="40" y="155" width="60" height="40" as="geometry" />
        </mxCell>
        <mxCell id="ENUr2uliMA9B9ldXwCLC-5" style="edgeStyle=orthogonalEdgeStyle;rounded=0;orthogonalLoop=1;jettySize=auto;html=1;exitX=0.5;exitY=1;exitDx=0;exitDy=0;" edge="1" parent="1" source="ENUr2uliMA9B9ldXwCLC-4">
          <mxGeometry relative="1" as="geometry">
            <mxPoint x="160" y="175" as="targetPoint" />
          </mxGeometry>
        </mxCell>
        <mxCell id="ENUr2uliMA9B9ldXwCLC-4" value="&lt;font style=&quot;font-size: 15px;&quot; face=&quot;Times New Roman&quot;&gt;16×3 conv64,(16,1)&lt;/font&gt;" style="rounded=1;whiteSpace=wrap;html=1;rotation=-90;fillColor=#dae8fc;strokeColor=#6c8ebf;" vertex="1" parent="1">
          <mxGeometry x="55" y="165" width="150" height="20" as="geometry" />
        </mxCell>
        <mxCell id="ENUr2uliMA9B9ldXwCLC-6" style="edgeStyle=orthogonalEdgeStyle;rounded=0;orthogonalLoop=1;jettySize=auto;html=1;exitX=0.5;exitY=1;exitDx=0;exitDy=0;" edge="1" parent="1" source="ENUr2uliMA9B9ldXwCLC-7">
          <mxGeometry relative="1" as="geometry">
            <mxPoint x="205" y="175" as="targetPoint" />
          </mxGeometry>
        </mxCell>
        <mxCell id="ENUr2uliMA9B9ldXwCLC-7" value="&lt;font style=&quot;font-size: 15px;&quot; face=&quot;Times New Roman&quot;&gt;1×4 conv128,(1,2)&lt;/font&gt;" style="rounded=1;whiteSpace=wrap;html=1;rotation=-90;fillColor=#fff2cc;strokeColor=#d6b656;" vertex="1" parent="1">
          <mxGeometry x="100" y="165" width="150" height="20" as="geometry" />
        </mxCell>
        <mxCell id="ENUr2uliMA9B9ldXwCLC-8" style="edgeStyle=orthogonalEdgeStyle;rounded=0;orthogonalLoop=1;jettySize=auto;html=1;exitX=0.5;exitY=1;exitDx=0;exitDy=0;" edge="1" parent="1" source="ENUr2uliMA9B9ldXwCLC-9">
          <mxGeometry relative="1" as="geometry">
            <mxPoint x="245" y="175" as="targetPoint" />
          </mxGeometry>
        </mxCell>
        <mxCell id="ENUr2uliMA9B9ldXwCLC-9" value="&lt;font style=&quot;font-size: 15px;&quot; face=&quot;Times New Roman&quot;&gt;1×4 conv256,(1,2)&lt;/font&gt;" style="rounded=1;whiteSpace=wrap;html=1;rotation=-90;fillColor=#ffe6cc;strokeColor=#d79b00;" vertex="1" parent="1">
          <mxGeometry x="140" y="165" width="150" height="20" as="geometry" />
        </mxCell>
        <mxCell id="ENUr2uliMA9B9ldXwCLC-10" style="edgeStyle=orthogonalEdgeStyle;rounded=0;orthogonalLoop=1;jettySize=auto;html=1;exitX=0.5;exitY=1;exitDx=0;exitDy=0;" edge="1" parent="1" source="ENUr2uliMA9B9ldXwCLC-11">
          <mxGeometry relative="1" as="geometry">
            <mxPoint x="285" y="175" as="targetPoint" />
          </mxGeometry>
        </mxCell>
        <mxCell id="ENUr2uliMA9B9ldXwCLC-11" value="&lt;font style=&quot;font-size: 15px;&quot; face=&quot;Times New Roman&quot;&gt;1×4 conv64,(1,2)&lt;/font&gt;" style="rounded=1;whiteSpace=wrap;html=1;rotation=-90;fillColor=#ffe6cc;strokeColor=#d79b00;" vertex="1" parent="1">
          <mxGeometry x="180" y="165" width="150" height="20" as="geometry" />
        </mxCell>
        <mxCell id="ENUr2uliMA9B9ldXwCLC-12" style="edgeStyle=orthogonalEdgeStyle;rounded=0;orthogonalLoop=1;jettySize=auto;html=1;exitX=0.5;exitY=1;exitDx=0;exitDy=0;" edge="1" parent="1" source="ENUr2uliMA9B9ldXwCLC-13">
          <mxGeometry relative="1" as="geometry">
            <mxPoint x="325" y="175" as="targetPoint" />
          </mxGeometry>
        </mxCell>
        <mxCell id="ENUr2uliMA9B9ldXwCLC-13" value="&lt;font style=&quot;font-size: 15px;&quot; face=&quot;Times New Roman&quot;&gt;2×2 convT512,(2,2)&lt;/font&gt;" style="rounded=1;whiteSpace=wrap;html=1;rotation=-90;fillColor=#e1d5e7;strokeColor=#9673a6;" vertex="1" parent="1">
          <mxGeometry x="220" y="165" width="150" height="20" as="geometry" />
        </mxCell>
        <mxCell id="ENUr2uliMA9B9ldXwCLC-14" style="edgeStyle=orthogonalEdgeStyle;rounded=0;orthogonalLoop=1;jettySize=auto;html=1;exitX=0.5;exitY=1;exitDx=0;exitDy=0;" edge="1" parent="1" source="ENUr2uliMA9B9ldXwCLC-15">
          <mxGeometry relative="1" as="geometry">
            <mxPoint x="365" y="175" as="targetPoint" />
          </mxGeometry>
        </mxCell>
        <mxCell id="ENUr2uliMA9B9ldXwCLC-15" value="&lt;font style=&quot;font-size: 15px;&quot; face=&quot;Times New Roman&quot;&gt;4×4 convT128,(4,2)&lt;/font&gt;" style="rounded=1;whiteSpace=wrap;html=1;rotation=-90;fillColor=#e1d5e7;strokeColor=#9673a6;" vertex="1" parent="1">
          <mxGeometry x="260" y="165" width="150" height="20" as="geometry" />
        </mxCell>
        <mxCell id="ENUr2uliMA9B9ldXwCLC-16" style="edgeStyle=orthogonalEdgeStyle;rounded=0;orthogonalLoop=1;jettySize=auto;html=1;exitX=0.5;exitY=1;exitDx=0;exitDy=0;" edge="1" parent="1" source="ENUr2uliMA9B9ldXwCLC-17">
          <mxGeometry relative="1" as="geometry">
            <mxPoint x="405" y="175" as="targetPoint" />
          </mxGeometry>
        </mxCell>
        <mxCell id="ENUr2uliMA9B9ldXwCLC-17" value="&lt;font style=&quot;font-size: 15px;&quot; face=&quot;Times New Roman&quot;&gt;2×4 convT64,(2,2)&lt;/font&gt;" style="rounded=1;whiteSpace=wrap;html=1;rotation=-90;fillColor=#d5e8d4;strokeColor=#82b366;" vertex="1" parent="1">
          <mxGeometry x="300" y="165" width="150" height="20" as="geometry" />
        </mxCell>
        <mxCell id="ENUr2uliMA9B9ldXwCLC-18" style="edgeStyle=orthogonalEdgeStyle;rounded=0;orthogonalLoop=1;jettySize=auto;html=1;exitX=0.5;exitY=1;exitDx=0;exitDy=0;" edge="1" parent="1" source="ENUr2uliMA9B9ldXwCLC-19">
          <mxGeometry relative="1" as="geometry">
            <mxPoint x="445" y="175" as="targetPoint" />
          </mxGeometry>
        </mxCell>
        <mxCell id="ENUr2uliMA9B9ldXwCLC-19" value="&lt;font style=&quot;font-size: 15px;&quot; face=&quot;Times New Roman&quot;&gt;1×1 convT64,(2,2)&lt;/font&gt;" style="rounded=1;whiteSpace=wrap;html=1;rotation=-90;fillColor=#d5e8d4;strokeColor=#82b366;" vertex="1" parent="1">
          <mxGeometry x="340" y="165" width="150" height="20" as="geometry" />
        </mxCell>
        <mxCell id="ENUr2uliMA9B9ldXwCLC-20" style="edgeStyle=orthogonalEdgeStyle;rounded=0;orthogonalLoop=1;jettySize=auto;html=1;exitX=0.5;exitY=1;exitDx=0;exitDy=0;" edge="1" parent="1" source="ENUr2uliMA9B9ldXwCLC-21">
          <mxGeometry relative="1" as="geometry">
            <mxPoint x="485" y="175" as="targetPoint" />
          </mxGeometry>
        </mxCell>
        <mxCell id="ENUr2uliMA9B9ldXwCLC-21" value="&lt;font style=&quot;font-size: 15px;&quot; face=&quot;Times New Roman&quot;&gt;Tanh&lt;/font&gt;" style="rounded=1;whiteSpace=wrap;html=1;rotation=-90;fillColor=#ffcccc;strokeColor=#36393d;" vertex="1" parent="1">
          <mxGeometry x="380" y="165" width="150" height="20" as="geometry" />
        </mxCell>
        <mxCell id="ENUr2uliMA9B9ldXwCLC-23" value="&lt;font style=&quot;font-size: 15px;&quot; face=&quot;Times New Roman&quot;&gt;$$x{_{re}}(n)$$&lt;/font&gt;" style="rounded=1;whiteSpace=wrap;html=1;rotation=0;" vertex="1" parent="1">
          <mxGeometry x="490" y="160" width="60" height="30" as="geometry" />
        </mxCell>
      </root>
    </mxGraphModel>
  </diagram>
  <diagram id="doyI0UaXT1K6sAR7R5pE" name="第 4 页">
    <mxGraphModel dx="442" dy="453" grid="1" gridSize="10" guides="1" tooltips="1" connect="1" arrows="1" fold="1" page="1" pageScale="1" pageWidth="850" pageHeight="1100" math="1" shadow="0">
      <root>
        <mxCell id="0" />
        <mxCell id="1" parent="0" />
        <mxCell id="gcHvq50gvC0w0v_51WGi-1" style="edgeStyle=orthogonalEdgeStyle;rounded=0;orthogonalLoop=1;jettySize=auto;html=1;" edge="1" parent="1" source="gcHvq50gvC0w0v_51WGi-2">
          <mxGeometry relative="1" as="geometry">
            <mxPoint x="120" y="175" as="targetPoint" />
          </mxGeometry>
        </mxCell>
        <mxCell id="gcHvq50gvC0w0v_51WGi-2" value="&lt;font style=&quot;font-size: 14px;&quot;&gt;&lt;svg style=&quot;vertical-align: -0.566ex;&quot; xmlns:xlink=&quot;http://www.w3.org/1999/xlink&quot; viewBox=&quot;0 -809 2227.5 1059&quot; role=&quot;img&quot; height=&quot;2.396ex&quot; width=&quot;5.039ex&quot; xmlns=&quot;http://www.w3.org/2000/svg&quot;&gt;&lt;defs&gt;&lt;path d=&quot;M52 289Q59 331 106 386T222 442Q257 442 286 424T329 379Q371 442 430 442Q467 442 494 420T522 361Q522 332 508 314T481 292T458 288Q439 288 427 299T415 328Q415 374 465 391Q454 404 425 404Q412 404 406 402Q368 386 350 336Q290 115 290 78Q290 50 306 38T341 26Q378 26 414 59T463 140Q466 150 469 151T485 153H489Q504 153 504 145Q504 144 502 134Q486 77 440 33T333 -11Q263 -11 227 52Q186 -10 133 -10H127Q78 -10 57 16T35 71Q35 103 54 123T99 143Q142 143 142 101Q142 81 130 66T107 46T94 41L91 40Q91 39 97 36T113 29T132 26Q168 26 194 71Q203 87 217 139T245 247T261 313Q266 340 266 352Q266 380 251 392T217 404Q177 404 142 372T93 290Q91 281 88 280T72 278H58Q52 284 52 289Z&quot; id=&quot;MJX-49-TEX-I-1D465&quot;&gt;&lt;/path&gt;&lt;path d=&quot;M79 43Q73 43 52 49T30 61Q30 68 85 293T146 528Q161 560 198 560Q218 560 240 545T262 501Q262 496 260 486Q259 479 173 263T84 45T79 43Z&quot; id=&quot;MJX-49-TEX-V-2032&quot;&gt;&lt;/path&gt;&lt;path d=&quot;M94 250Q94 319 104 381T127 488T164 576T202 643T244 695T277 729T302 750H315H319Q333 750 333 741Q333 738 316 720T275 667T226 581T184 443T167 250T184 58T225 -81T274 -167T316 -220T333 -241Q333 -250 318 -250H315H302L274 -226Q180 -141 137 -14T94 250Z&quot; id=&quot;MJX-49-TEX-N-28&quot;&gt;&lt;/path&gt;&lt;path d=&quot;M21 287Q22 293 24 303T36 341T56 388T89 425T135 442Q171 442 195 424T225 390T231 369Q231 367 232 367L243 378Q304 442 382 442Q436 442 469 415T503 336T465 179T427 52Q427 26 444 26Q450 26 453 27Q482 32 505 65T540 145Q542 153 560 153Q580 153 580 145Q580 144 576 130Q568 101 554 73T508 17T439 -10Q392 -10 371 17T350 73Q350 92 386 193T423 345Q423 404 379 404H374Q288 404 229 303L222 291L189 157Q156 26 151 16Q138 -11 108 -11Q95 -11 87 -5T76 7T74 17Q74 30 112 180T152 343Q153 348 153 366Q153 405 129 405Q91 405 66 305Q60 285 60 284Q58 278 41 278H27Q21 284 21 287Z&quot; id=&quot;MJX-49-TEX-I-1D45B&quot;&gt;&lt;/path&gt;&lt;path d=&quot;M60 749L64 750Q69 750 74 750H86L114 726Q208 641 251 514T294 250Q294 182 284 119T261 12T224 -76T186 -143T145 -194T113 -227T90 -246Q87 -249 86 -250H74Q66 -250 63 -250T58 -247T55 -238Q56 -237 66 -225Q221 -64 221 250T66 725Q56 737 55 738Q55 746 60 749Z&quot; id=&quot;MJX-49-TEX-N-29&quot;&gt;&lt;/path&gt;&lt;/defs&gt;&lt;g transform=&quot;scale(1,-1)&quot; stroke-width=&quot;0&quot; fill=&quot;currentColor&quot; stroke=&quot;currentColor&quot;&gt;&lt;g data-mml-node=&quot;math&quot;&gt;&lt;g data-mml-node=&quot;msup&quot;&gt;&lt;g data-mml-node=&quot;mi&quot;&gt;&lt;use xlink:href=&quot;#MJX-49-TEX-I-1D465&quot; data-c=&quot;1D465&quot;&gt;&lt;/use&gt;&lt;/g&gt;&lt;g transform=&quot;translate(605,413) scale(0.707)&quot; data-mml-node=&quot;mo&quot;&gt;&lt;use xlink:href=&quot;#MJX-49-TEX-V-2032&quot; data-c=&quot;2032&quot;&gt;&lt;/use&gt;&lt;/g&gt;&lt;/g&gt;&lt;g transform=&quot;translate(849.5,0)&quot; data-mml-node=&quot;mo&quot;&gt;&lt;use xlink:href=&quot;#MJX-49-TEX-N-28&quot; data-c=&quot;28&quot;&gt;&lt;/use&gt;&lt;/g&gt;&lt;g transform=&quot;translate(1238.5,0)&quot; data-mml-node=&quot;mi&quot;&gt;&lt;use xlink:href=&quot;#MJX-49-TEX-I-1D45B&quot; data-c=&quot;1D45B&quot;&gt;&lt;/use&gt;&lt;/g&gt;&lt;g transform=&quot;translate(1838.5,0)&quot; data-mml-node=&quot;mo&quot;&gt;&lt;use xlink:href=&quot;#MJX-49-TEX-N-29&quot; data-c=&quot;29&quot;&gt;&lt;/use&gt;&lt;/g&gt;&lt;/g&gt;&lt;/g&gt;&lt;/svg&gt;&lt;/font&gt;" style="rounded=1;whiteSpace=wrap;html=1;" vertex="1" parent="1">
          <mxGeometry x="40" y="155" width="60" height="40" as="geometry" />
        </mxCell>
        <mxCell id="gcHvq50gvC0w0v_51WGi-3" style="edgeStyle=orthogonalEdgeStyle;rounded=0;orthogonalLoop=1;jettySize=auto;html=1;exitX=0.5;exitY=1;exitDx=0;exitDy=0;" edge="1" parent="1" source="gcHvq50gvC0w0v_51WGi-4">
          <mxGeometry relative="1" as="geometry">
            <mxPoint x="160" y="175" as="targetPoint" />
          </mxGeometry>
        </mxCell>
        <mxCell id="gcHvq50gvC0w0v_51WGi-4" value="&lt;font style=&quot;font-size: 15px;&quot; face=&quot;Times New Roman&quot;&gt;16×2 conv64,(1,1)&lt;/font&gt;" style="rounded=1;whiteSpace=wrap;html=1;rotation=-90;fillColor=#dae8fc;strokeColor=#6c8ebf;" vertex="1" parent="1">
          <mxGeometry x="55" y="165" width="150" height="20" as="geometry" />
        </mxCell>
        <mxCell id="gcHvq50gvC0w0v_51WGi-5" style="edgeStyle=orthogonalEdgeStyle;rounded=0;orthogonalLoop=1;jettySize=auto;html=1;exitX=0.5;exitY=1;exitDx=0;exitDy=0;" edge="1" parent="1" source="gcHvq50gvC0w0v_51WGi-6">
          <mxGeometry relative="1" as="geometry">
            <mxPoint x="205" y="175" as="targetPoint" />
          </mxGeometry>
        </mxCell>
        <mxCell id="gcHvq50gvC0w0v_51WGi-6" value="&lt;font style=&quot;font-size: 15px;&quot; face=&quot;Times New Roman&quot;&gt;1×4 conv128,(2,2)&lt;/font&gt;" style="rounded=1;whiteSpace=wrap;html=1;rotation=-90;fillColor=#fff2cc;strokeColor=#d6b656;" vertex="1" parent="1">
          <mxGeometry x="100" y="165" width="150" height="20" as="geometry" />
        </mxCell>
        <mxCell id="gcHvq50gvC0w0v_51WGi-7" style="edgeStyle=orthogonalEdgeStyle;rounded=0;orthogonalLoop=1;jettySize=auto;html=1;exitX=0.5;exitY=1;exitDx=0;exitDy=0;" edge="1" parent="1" source="gcHvq50gvC0w0v_51WGi-8">
          <mxGeometry relative="1" as="geometry">
            <mxPoint x="245" y="175" as="targetPoint" />
          </mxGeometry>
        </mxCell>
        <mxCell id="gcHvq50gvC0w0v_51WGi-8" value="&lt;font style=&quot;font-size: 15px;&quot; face=&quot;Times New Roman&quot;&gt;1×4 conv256,(2,2)&lt;/font&gt;" style="rounded=1;whiteSpace=wrap;html=1;rotation=-90;fillColor=#ffe6cc;strokeColor=#d79b00;" vertex="1" parent="1">
          <mxGeometry x="140" y="165" width="150" height="20" as="geometry" />
        </mxCell>
        <mxCell id="gcHvq50gvC0w0v_51WGi-9" style="edgeStyle=orthogonalEdgeStyle;rounded=0;orthogonalLoop=1;jettySize=auto;html=1;exitX=0.5;exitY=1;exitDx=0;exitDy=0;" edge="1" parent="1" source="gcHvq50gvC0w0v_51WGi-10">
          <mxGeometry relative="1" as="geometry">
            <mxPoint x="285" y="175" as="targetPoint" />
          </mxGeometry>
        </mxCell>
        <mxCell id="gcHvq50gvC0w0v_51WGi-10" value="&lt;font style=&quot;font-size: 15px;&quot; face=&quot;Times New Roman&quot;&gt;1×4 conv64,(1,2)&lt;/font&gt;" style="rounded=1;whiteSpace=wrap;html=1;rotation=-90;fillColor=#ffe6cc;strokeColor=#d79b00;" vertex="1" parent="1">
          <mxGeometry x="180" y="165" width="150" height="20" as="geometry" />
        </mxCell>
        <mxCell id="gcHvq50gvC0w0v_51WGi-11" style="edgeStyle=orthogonalEdgeStyle;rounded=0;orthogonalLoop=1;jettySize=auto;html=1;exitX=0.5;exitY=1;exitDx=0;exitDy=0;" edge="1" parent="1" source="gcHvq50gvC0w0v_51WGi-12">
          <mxGeometry relative="1" as="geometry">
            <mxPoint x="325" y="175" as="targetPoint" />
          </mxGeometry>
        </mxCell>
        <mxCell id="gcHvq50gvC0w0v_51WGi-12" value="&lt;font style=&quot;font-size: 15px;&quot; face=&quot;Times New Roman&quot;&gt;1×1 conv512,(1,2)&lt;/font&gt;" style="rounded=1;whiteSpace=wrap;html=1;rotation=-90;fillColor=#e1d5e7;strokeColor=#9673a6;" vertex="1" parent="1">
          <mxGeometry x="220" y="165" width="150" height="20" as="geometry" />
        </mxCell>
        <mxCell id="gcHvq50gvC0w0v_51WGi-13" style="edgeStyle=orthogonalEdgeStyle;rounded=0;orthogonalLoop=1;jettySize=auto;html=1;exitX=0.5;exitY=1;exitDx=0;exitDy=0;" edge="1" parent="1" source="gcHvq50gvC0w0v_51WGi-14">
          <mxGeometry relative="1" as="geometry">
            <mxPoint x="365" y="175" as="targetPoint" />
          </mxGeometry>
        </mxCell>
        <mxCell id="gcHvq50gvC0w0v_51WGi-14" value="&lt;font style=&quot;font-size: 15px;&quot; face=&quot;Times New Roman&quot;&gt;avgpool&lt;/font&gt;" style="rounded=1;whiteSpace=wrap;html=1;rotation=-90;fillColor=#e1d5e7;strokeColor=#9673a6;" vertex="1" parent="1">
          <mxGeometry x="260" y="165" width="150" height="20" as="geometry" />
        </mxCell>
        <mxCell id="gcHvq50gvC0w0v_51WGi-15" style="edgeStyle=orthogonalEdgeStyle;rounded=0;orthogonalLoop=1;jettySize=auto;html=1;exitX=0.5;exitY=1;exitDx=0;exitDy=0;" edge="1" parent="1" source="gcHvq50gvC0w0v_51WGi-16">
          <mxGeometry relative="1" as="geometry">
            <mxPoint x="405" y="175" as="targetPoint" />
          </mxGeometry>
        </mxCell>
        <mxCell id="gcHvq50gvC0w0v_51WGi-16" value="&lt;font style=&quot;font-size: 15px;&quot; face=&quot;Times New Roman&quot;&gt;fc&lt;/font&gt;" style="rounded=1;whiteSpace=wrap;html=1;rotation=-90;fillColor=#d5e8d4;strokeColor=#82b366;" vertex="1" parent="1">
          <mxGeometry x="300" y="165" width="150" height="20" as="geometry" />
        </mxCell>
        <mxCell id="gcHvq50gvC0w0v_51WGi-17" style="edgeStyle=orthogonalEdgeStyle;rounded=0;orthogonalLoop=1;jettySize=auto;html=1;exitX=0.5;exitY=1;exitDx=0;exitDy=0;" edge="1" parent="1" source="gcHvq50gvC0w0v_51WGi-18">
          <mxGeometry relative="1" as="geometry">
            <mxPoint x="445" y="175" as="targetPoint" />
          </mxGeometry>
        </mxCell>
        <mxCell id="gcHvq50gvC0w0v_51WGi-18" value="&lt;font style=&quot;font-size: 15px;&quot; face=&quot;Times New Roman&quot;&gt;1×1 convT64,(2,2)&lt;/font&gt;" style="rounded=1;whiteSpace=wrap;html=1;rotation=-90;fillColor=#d5e8d4;strokeColor=#82b366;" vertex="1" parent="1">
          <mxGeometry x="340" y="165" width="150" height="20" as="geometry" />
        </mxCell>
        <mxCell id="gcHvq50gvC0w0v_51WGi-19" style="edgeStyle=orthogonalEdgeStyle;rounded=0;orthogonalLoop=1;jettySize=auto;html=1;exitX=0.5;exitY=1;exitDx=0;exitDy=0;" edge="1" parent="1" source="gcHvq50gvC0w0v_51WGi-20">
          <mxGeometry relative="1" as="geometry">
            <mxPoint x="485" y="175" as="targetPoint" />
          </mxGeometry>
        </mxCell>
        <mxCell id="gcHvq50gvC0w0v_51WGi-20" value="&lt;font style=&quot;font-size: 15px;&quot; face=&quot;Times New Roman&quot;&gt;Tanh&lt;/font&gt;" style="rounded=1;whiteSpace=wrap;html=1;rotation=-90;fillColor=#ffcccc;strokeColor=#36393d;" vertex="1" parent="1">
          <mxGeometry x="380" y="165" width="150" height="20" as="geometry" />
        </mxCell>
        <mxCell id="gcHvq50gvC0w0v_51WGi-21" value="&lt;font style=&quot;font-size: 15px;&quot; face=&quot;Times New Roman&quot;&gt;$$x{_{re}}(n)$$&lt;/font&gt;" style="rounded=1;whiteSpace=wrap;html=1;rotation=0;" vertex="1" parent="1">
          <mxGeometry x="490" y="160" width="60" height="30" as="geometry" />
        </mxCell>
      </root>
    </mxGraphModel>
  </diagram>
</mxfile>
